<svg width="251" height="65" viewBox="0 0 251 65" fill="none" xmlns="http://www.w3.org/2000/svg">
<path d="M86.3441 44.072C86.5574 46.2053 87.3681 47.6987 88.7761 48.552C90.1841 49.4053 91.8694 49.832 93.8321 49.832C94.5148 49.832 95.2828 49.7893 96.1361 49.704C97.0321 49.576 97.8641 49.3627 98.6321 49.064C99.4001 48.7653 100.019 48.3387 100.488 47.784C101 47.1867 101.235 46.4187 101.192 45.48C101.149 44.5413 100.808 43.7733 100.168 43.176C99.5281 42.5787 98.6961 42.1093 97.6721 41.768C96.6908 41.384 95.5601 41.064 94.2801 40.808C93.0001 40.552 91.6988 40.2747 90.3761 39.976C89.0108 39.6773 87.6881 39.3147 86.4081 38.888C85.1708 38.4613 84.0401 37.8853 83.0161 37.16C82.0348 36.4347 81.2454 35.5173 80.6481 34.408C80.0508 33.256 79.7521 31.848 79.7521 30.184C79.7521 28.392 80.1788 26.8987 81.0321 25.704C81.9281 24.4667 83.0374 23.4853 84.3601 22.76C85.7254 21.992 87.2188 21.4587 88.8401 21.16C90.5041 20.8613 92.0828 20.712 93.5761 20.712C95.2828 20.712 96.9041 20.904 98.4401 21.288C100.019 21.6293 101.427 22.2053 102.664 23.016C103.944 23.8267 104.989 24.8933 105.8 26.216C106.653 27.496 107.187 29.0533 107.4 30.888H99.7841C99.4428 29.1387 98.6321 27.9653 97.3521 27.368C96.1148 26.7707 94.6854 26.472 93.0641 26.472C92.5521 26.472 91.9334 26.5147 91.2081 26.6C90.5254 26.6853 89.8641 26.856 89.2241 27.112C88.6268 27.3253 88.1148 27.6667 87.6881 28.136C87.2614 28.5627 87.0481 29.1387 87.0481 29.864C87.0481 30.76 87.3468 31.4853 87.9441 32.04C88.5841 32.5947 89.3948 33.064 90.3761 33.448C91.4001 33.7893 92.5521 34.088 93.8321 34.344C95.1121 34.6 96.4348 34.8773 97.8001 35.176C99.1228 35.4747 100.424 35.8373 101.704 36.264C102.984 36.6907 104.115 37.2667 105.096 37.992C106.12 38.7173 106.931 39.6347 107.528 40.744C108.168 41.8533 108.488 43.2187 108.488 44.84C108.488 46.8027 108.04 48.4667 107.144 49.832C106.248 51.1973 105.075 52.3067 103.624 53.16C102.216 54.0133 100.637 54.632 98.8881 55.016C97.1388 55.4 95.4108 55.592 93.7041 55.592C91.6134 55.592 89.6721 55.3573 87.8801 54.888C86.1308 54.4187 84.5948 53.7147 83.2721 52.776C81.9921 51.7947 80.9681 50.6 80.2001 49.192C79.4748 47.7413 79.0908 46.0347 79.0481 44.072H86.3441Z" fill="#263246"/>
<path d="M114.22 9H121.516V15.912H114.22V9ZM114.22 21.608H121.516V54.696H114.22V21.608Z" fill="#263246"/>
<path d="M152.185 35.24C152.1 34.088 151.844 32.9787 151.417 31.912C151.033 30.8453 150.478 29.928 149.753 29.16C149.07 28.3493 148.217 27.7093 147.193 27.24C146.212 26.728 145.102 26.472 143.865 26.472C142.585 26.472 141.412 26.7067 140.345 27.176C139.321 27.6027 138.425 28.2213 137.657 29.032C136.932 29.8 136.334 30.7173 135.865 31.784C135.438 32.8507 135.204 34.0027 135.161 35.24H152.185ZM135.161 40.04C135.161 41.32 135.332 42.5573 135.673 43.752C136.057 44.9467 136.612 45.992 137.337 46.888C138.062 47.784 138.98 48.5093 140.089 49.064C141.198 49.576 142.521 49.832 144.057 49.832C146.19 49.832 147.897 49.384 149.177 48.488C150.5 47.5493 151.481 46.1627 152.121 44.328H159.033C158.649 46.12 157.988 47.72 157.049 49.128C156.11 50.536 154.98 51.7307 153.657 52.712C152.334 53.6507 150.841 54.3547 149.177 54.824C147.556 55.336 145.849 55.592 144.057 55.592C141.454 55.592 139.15 55.1653 137.145 54.312C135.14 53.4587 133.433 52.264 132.025 50.728C130.66 49.192 129.614 47.3573 128.889 45.224C128.206 43.0907 127.865 40.744 127.865 38.184C127.865 35.8373 128.228 33.6187 128.953 31.528C129.721 29.3947 130.788 27.5387 132.153 25.96C133.561 24.3387 135.246 23.0587 137.209 22.12C139.172 21.1813 141.39 20.712 143.865 20.712C146.468 20.712 148.793 21.2667 150.841 22.376C152.932 23.4427 154.66 24.872 156.025 26.664C157.39 28.456 158.372 30.5253 158.969 32.872C159.609 35.176 159.78 37.5653 159.481 40.04H135.161Z" fill="#263246"/>
<path d="M170.532 44.072C170.745 46.2053 171.556 47.6987 172.964 48.552C174.372 49.4053 176.057 49.832 178.02 49.832C178.702 49.832 179.47 49.7893 180.324 49.704C181.22 49.576 182.052 49.3627 182.82 49.064C183.588 48.7653 184.206 48.3387 184.676 47.784C185.188 47.1867 185.422 46.4187 185.38 45.48C185.337 44.5413 184.996 43.7733 184.356 43.176C183.716 42.5787 182.884 42.1093 181.86 41.768C180.878 41.384 179.748 41.064 178.468 40.808C177.188 40.552 175.886 40.2747 174.564 39.976C173.198 39.6773 171.876 39.3147 170.596 38.888C169.358 38.4613 168.228 37.8853 167.204 37.16C166.222 36.4347 165.433 35.5173 164.836 34.408C164.238 33.256 163.94 31.848 163.94 30.184C163.94 28.392 164.366 26.8987 165.22 25.704C166.116 24.4667 167.225 23.4853 168.548 22.76C169.913 21.992 171.406 21.4587 173.028 21.16C174.692 20.8613 176.27 20.712 177.764 20.712C179.47 20.712 181.092 20.904 182.628 21.288C184.206 21.6293 185.614 22.2053 186.852 23.016C188.132 23.8267 189.177 24.8933 189.988 26.216C190.841 27.496 191.374 29.0533 191.588 30.888H183.972C183.63 29.1387 182.82 27.9653 181.54 27.368C180.302 26.7707 178.873 26.472 177.252 26.472C176.74 26.472 176.121 26.5147 175.396 26.6C174.713 26.6853 174.052 26.856 173.412 27.112C172.814 27.3253 172.302 27.6667 171.876 28.136C171.449 28.5627 171.236 29.1387 171.236 29.864C171.236 30.76 171.534 31.4853 172.132 32.04C172.772 32.5947 173.582 33.064 174.564 33.448C175.588 33.7893 176.74 34.088 178.02 34.344C179.3 34.6 180.622 34.8773 181.988 35.176C183.31 35.4747 184.612 35.8373 185.892 36.264C187.172 36.6907 188.302 37.2667 189.284 37.992C190.308 38.7173 191.118 39.6347 191.716 40.744C192.356 41.8533 192.676 43.2187 192.676 44.84C192.676 46.8027 192.228 48.4667 191.332 49.832C190.436 51.1973 189.262 52.3067 187.812 53.16C186.404 54.0133 184.825 54.632 183.076 55.016C181.326 55.4 179.598 55.592 177.892 55.592C175.801 55.592 173.86 55.3573 172.068 54.888C170.318 54.4187 168.782 53.7147 167.46 52.776C166.18 51.7947 165.156 50.6 164.388 49.192C163.662 47.7413 163.278 46.0347 163.236 44.072H170.532Z" fill="#263246"/>
<path d="M194.887 21.608H200.391V11.688H207.687V21.608H214.279V27.048H207.687V44.712C207.687 45.48 207.708 46.1413 207.751 46.696C207.836 47.2507 207.986 47.72 208.199 48.104C208.455 48.488 208.818 48.7867 209.287 49C209.756 49.1707 210.396 49.256 211.207 49.256C211.719 49.256 212.231 49.256 212.743 49.256C213.255 49.2133 213.767 49.128 214.279 49V54.632C213.468 54.7173 212.679 54.8027 211.911 54.888C211.143 54.9733 210.354 55.016 209.543 55.016C207.623 55.016 206.066 54.8453 204.871 54.504C203.719 54.12 202.802 53.5867 202.119 52.904C201.479 52.1787 201.031 51.2827 200.775 50.216C200.562 49.1493 200.434 47.9333 200.391 46.568V27.048H194.887V21.608Z" fill="#263246"/>
<path d="M247.24 47.336C247.24 48.232 247.346 48.872 247.56 49.256C247.816 49.64 248.285 49.832 248.968 49.832C249.181 49.832 249.437 49.832 249.736 49.832C250.034 49.832 250.376 49.7893 250.76 49.704V54.76C250.504 54.8453 250.162 54.9307 249.736 55.016C249.352 55.144 248.946 55.2507 248.52 55.336C248.093 55.4213 247.666 55.4853 247.24 55.528C246.813 55.5707 246.45 55.592 246.152 55.592C244.658 55.592 243.421 55.2933 242.44 54.696C241.458 54.0987 240.818 53.0533 240.52 51.56C239.069 52.968 237.277 53.992 235.144 54.632C233.053 55.272 231.026 55.592 229.064 55.592C227.57 55.592 226.141 55.3787 224.776 54.952C223.41 54.568 222.194 53.992 221.128 53.224C220.104 52.4133 219.272 51.4107 218.632 50.216C218.034 48.9787 217.736 47.5493 217.736 45.928C217.736 43.88 218.098 42.216 218.824 40.936C219.592 39.656 220.573 38.6533 221.768 37.928C223.005 37.2027 224.37 36.6907 225.864 36.392C227.4 36.0507 228.936 35.7947 230.472 35.624C231.794 35.368 233.053 35.1973 234.248 35.112C235.442 34.984 236.488 34.792 237.384 34.536C238.322 34.28 239.048 33.896 239.56 33.384C240.114 32.8293 240.392 32.0187 240.392 30.952C240.392 30.0133 240.157 29.2453 239.688 28.648C239.261 28.0507 238.706 27.6027 238.024 27.304C237.384 26.9627 236.658 26.7493 235.848 26.664C235.037 26.536 234.269 26.472 233.544 26.472C231.496 26.472 229.81 26.8987 228.488 27.752C227.165 28.6053 226.418 29.928 226.248 31.72H218.952C219.08 29.5867 219.592 27.816 220.488 26.408C221.384 25 222.514 23.8693 223.88 23.016C225.288 22.1627 226.866 21.5653 228.616 21.224C230.365 20.8827 232.157 20.712 233.992 20.712C235.613 20.712 237.213 20.8827 238.792 21.224C240.37 21.5653 241.778 22.12 243.016 22.888C244.296 23.656 245.32 24.6587 246.088 25.896C246.856 27.0907 247.24 28.5627 247.24 30.312V47.336ZM239.944 38.12C238.834 38.8453 237.469 39.2933 235.848 39.464C234.226 39.592 232.605 39.8053 230.984 40.104C230.216 40.232 229.469 40.424 228.744 40.68C228.018 40.8933 227.378 41.2133 226.824 41.64C226.269 42.024 225.821 42.5573 225.48 43.24C225.181 43.88 225.032 44.6693 225.032 45.608C225.032 46.4187 225.266 47.1013 225.736 47.656C226.205 48.2107 226.76 48.6587 227.4 49C228.082 49.2987 228.808 49.512 229.576 49.64C230.386 49.768 231.112 49.832 231.752 49.832C232.562 49.832 233.437 49.7253 234.376 49.512C235.314 49.2987 236.189 48.936 237 48.424C237.853 47.912 238.557 47.272 239.112 46.504C239.666 45.6933 239.944 44.712 239.944 43.56V38.12Z" fill="#263246"/>
<path d="M24.864 9H32.864V54.696H24.864V9Z" fill="#263246"/>
<path d="M38.3245 9H75.3165V15.912H60.7885V54.696H52.7885V15.912H38.3245V9Z" fill="#263246"/>
<path d="M17.6501 14.746V9.146H11.3001C10.7334 9.146 10.0834 9.29599 9.3501 9.59599C8.6501 9.86266 7.98343 10.2793 7.3501 10.846C6.7501 11.3793 6.23343 12.0793 5.8001 12.946C5.36676 13.7793 5.1501 14.7627 5.1501 15.896V25.296C5.1501 26.1293 4.98343 26.846 4.6501 27.446C4.31676 28.0127 3.91676 28.4793 3.4501 28.846C2.98343 29.1793 2.48343 29.4293 1.9501 29.596C1.41676 29.7293 0.966764 29.796 0.600098 29.796V34.146C0.966764 34.146 1.41676 34.2293 1.9501 34.396C2.48343 34.5293 2.98343 34.7627 3.4501 35.096C3.91676 35.396 4.31676 35.8127 4.6501 36.346C4.98343 36.8793 5.1501 37.5293 5.1501 38.296V47.996C5.1501 49.1293 5.36676 50.1127 5.8001 50.946C6.23343 51.8127 6.7501 52.5127 7.3501 53.046C7.98343 53.6127 8.6501 54.0293 9.3501 54.296C10.0834 54.596 10.7334 54.746 11.3001 54.746H17.6501V49.146H14.9501C14.3501 49.146 13.8668 49.0293 13.5001 48.796C13.1668 48.5627 12.9001 48.2627 12.7001 47.896C12.5001 47.5627 12.3668 47.1793 12.3001 46.746C12.2668 46.3127 12.2501 45.9127 12.2501 45.546V37.546C12.2501 36.4793 12.0501 35.6127 11.6501 34.946C11.2834 34.246 10.8334 33.696 10.3001 33.296C9.8001 32.8627 9.26676 32.5627 8.7001 32.396C8.13343 32.196 7.66676 32.0793 7.3001 32.046V31.896C7.66676 31.8627 8.13343 31.7627 8.7001 31.596C9.26676 31.4293 9.8001 31.146 10.3001 30.746C10.8334 30.3127 11.2834 29.7293 11.6501 28.996C12.0501 28.2293 12.2501 27.2293 12.2501 25.996V18.396C12.2501 17.996 12.2668 17.5793 12.3001 17.146C12.3668 16.7127 12.5001 16.3293 12.7001 15.996C12.9001 15.6293 13.1668 15.3293 13.5001 15.096C13.8668 14.8627 14.3501 14.746 14.9501 14.746H17.6501Z" fill="#005FD0"/>
</svg>
